<?xml version="1.0" encoding="UTF-8" standalone="no"?>
<!-- Created with Inkscape (http://www.inkscape.org/) -->

<svg
   width="13.98121mm"
   height="13.98121mm"
   viewBox="0 0 13.98121 13.98121"
   version="1.1"
   id="svg1"
   inkscape:version="1.4 (86a8ad7, 2024-10-11)"
   sodipodi:docname="lootgoblin_icon.svg"
   xmlns:inkscape="http://www.inkscape.org/namespaces/inkscape"
   xmlns:sodipodi="http://sodipodi.sourceforge.net/DTD/sodipodi-0.dtd"
   xmlns="http://www.w3.org/2000/svg"
   xmlns:svg="http://www.w3.org/2000/svg">
  <sodipodi:namedview
     id="namedview1"
     pagecolor="#ffffff"
     bordercolor="#999999"
     borderopacity="1"
     inkscape:showpageshadow="0"
     inkscape:pageopacity="0"
     inkscape:pagecheckerboard="0"
     inkscape:deskcolor="#d1d1d1"
     inkscape:document-units="mm"
     inkscape:zoom="4.0124018"
     inkscape:cx="37.882547"
     inkscape:cy="3.9876365"
     inkscape:window-width="2560"
     inkscape:window-height="1361"
     inkscape:window-x="2551"
     inkscape:window-y="-9"
     inkscape:window-maximized="1"
     inkscape:current-layer="layer1" />
  <defs
     id="defs1" />
  <g
     inkscape:label="Layer 1"
     inkscape:groupmode="layer"
     id="layer1"
     transform="translate(-98.009396,-141.50939)">
    <rect
       style="font-variation-settings:normal;vector-effect:none;fill:#1d1d1d;fill-opacity:1;stroke:#1d1d1d;stroke-width:0.529167;stroke-linecap:round;stroke-linejoin:miter;stroke-miterlimit:4;stroke-dasharray:none;stroke-dashoffset:0;stroke-opacity:1;-inkscape-stroke:none;stop-color:#000000"
       id="rect2"
       width="13.452043"
       height="13.452043"
       x="98.273979"
       y="141.77397" />
    <path
       style="font-weight:bold;font-size:9.57561px;line-height:1.25;font-family:Sans;-inkscape-font-specification:'Sans, Bold';text-align:center;letter-spacing:0px;word-spacing:0px;baseline-shift:baseline;text-anchor:middle;fill:#5d5382;stroke-width:0.359085"
       d="m 100.05288,151.91849 v -6.83699 h 1.44592 v 5.64004 h 2.77692 v 1.19695 z"
       id="text1"
       aria-label="L" />
    <path
       d="m 107.23722,148.07867 h 2.7099 v 3.54297 q -0.53623,0.18194 -1.12035,0.28727 -0.58411,0.10533 -1.31185,0.10533 -1.5321,0 -2.3556,-0.9001 -0.82351,-0.90011 -0.82351,-2.62372 0,-1.07247 0.41175,-1.85767 0.41176,-0.7852 1.20653,-1.2161 0.80435,-0.4309 1.95343,-0.4309 0.54581,0 1.07246,0.1149 0.52666,0.11491 0.95757,0.30642 l -0.47879,1.15865 q -0.31599,-0.16278 -0.71817,-0.26812 -0.40217,-0.10533 -0.84265,-0.10533 -0.63199,0 -1.10119,0.28727 -0.45963,0.28727 -0.71818,0.81393 -0.24896,0.52666 -0.24896,1.22568 0,0.67029 0.18194,1.18737 0.18193,0.51708 0.57453,0.81393 0.3926,0.28727 1.02459,0.28727 0.30642,0 0.51708,-0.0287 0.21067,-0.0287 0.40218,-0.067 v -1.42677 h -1.29271 z"
       id="text3"
       style="font-weight:bold;font-size:9.57561px;line-height:1.25;font-family:Sans;-inkscape-font-specification:'Sans, Bold';text-align:center;letter-spacing:0px;word-spacing:0px;text-anchor:middle;fill:#5d5382;stroke-width:0.359085"
       aria-label="G" />
  </g>
</svg>
